<svg width="2030" height="354" viewBox="0 0 2030 354" fill="none" xmlns="http://www.w3.org/2000/svg">
<g clip-path="url(#clip0_46_98)">
<rect width="2030" height="354" transform="matrix(1 0 0 -1 0 354)" fill="#272727"/>
<path d="M164.254 72.796V68.05H184.414V72.796H164.254ZM189.438 72.796V68.05H209.598V72.796H189.438ZM214.622 72.796V68.05H234.782V72.796H214.622ZM239.805 72.796V68.05H259.965V72.796H239.805ZM315.356 72.796V68.05H335.516V72.796H315.356ZM340.54 72.796V68.05H360.7V72.796H340.54ZM365.723 72.796V68.05H385.883V72.796H365.723ZM390.907 72.796V68.05H411.067V72.796H390.907ZM416.09 72.796V68.05H436.25V72.796H416.09ZM441.274 72.796V68.05H461.434V72.796H441.274ZM466.458 72.796V68.05H486.618V72.796H466.458ZM491.641 72.796V68.05H511.801V72.796H491.641ZM617.559 72.796V68.05H637.719V72.796H617.559ZM642.743 72.796V68.05H662.903V72.796H642.743ZM667.926 72.796V68.05H688.086V72.796H667.926ZM693.11 72.796V68.05H713.27V72.796H693.11ZM718.293 72.796V68.05H738.453V72.796H718.293ZM743.477 72.796V68.05H763.637V72.796H743.477ZM768.661 72.796V68.05H788.821V72.796H768.661ZM793.844 72.796V68.05H814.004V72.796H793.844ZM819.028 72.796V68.05H839.188V72.796H819.028ZM844.211 72.796V68.05H864.371V72.796H844.211ZM869.395 72.796V68.05H889.555V72.796H869.395ZM894.579 72.796V68.05H914.739V72.796H894.579ZM139.071 126.62L153.771 87.14H159.231L144.531 126.62H139.071ZM189.422 127.796V123.05H234.782V127.796H189.422ZM279.647 126.62L264.989 87.14H270.449L285.107 126.62H279.647ZM290.172 126.62L304.872 87.14H310.332L295.632 126.62H290.172ZM340.54 127.796V123.05H360.7V127.796H340.54ZM365.723 127.796V123.05H385.883V127.796H365.723ZM390.907 127.796V123.05H411.067V127.796H390.907ZM416.09 127.796V123.05H436.25V127.796H416.09ZM441.274 126.62L455.974 87.14H461.434L446.734 126.62H441.274ZM491.641 126.62L506.341 87.14H511.801L497.101 126.62H491.641ZM592.375 126.62L607.075 87.14H612.535L597.835 126.62H592.375ZM667.926 127.796V123.05H688.086V127.796H667.926ZM693.11 126.62L707.81 87.14H713.27L698.57 126.62H693.11ZM743.477 127.796V123.05H763.637V127.796H743.477ZM768.661 127.796V123.05H788.821V127.796H768.661ZM793.844 127.796V123.05H814.004V127.796H793.844ZM819.028 127.796V123.05H839.188V127.796H819.028ZM844.211 126.62L858.911 87.14H864.371L849.671 126.62H844.211ZM113.887 181.62L128.587 142.14H134.047L119.347 181.62H113.887ZM164.254 181.62L178.954 142.14H184.414L169.714 181.62H164.254ZM189.438 182.796V178.05H209.598V182.796H189.438ZM214.622 181.62L229.322 142.14H234.782L220.082 181.62H214.622ZM264.989 181.62L279.689 142.14H285.149L270.449 181.62H264.989ZM315.34 182.796V178.05H360.7V182.796H315.34ZM365.723 181.62L380.423 142.14H385.883L371.183 181.62H365.723ZM416.09 181.62L430.79 142.14H436.25L421.55 181.62H416.09ZM466.458 181.62L481.158 142.14H486.618L471.918 181.62H466.458ZM592.375 181.62L607.075 142.14H612.535L597.835 181.62H592.375ZM664.776 181.62L679.476 142.14H684.936L670.236 181.62H664.776ZM645.876 181.62L660.576 142.14H666.036L651.336 181.62H645.876ZM718.293 181.62L732.993 142.14H738.453L723.753 181.62H718.293ZM88.7036 236.62L103.404 197.14H108.864L94.1636 236.62H88.7036ZM139.071 237.796V233.05H159.231V237.796H139.071ZM168.034 238.72L171.394 225.658H178.114L172.654 238.72H168.034ZM214.622 237.796V233.05H234.782V237.796H214.622ZM239.805 236.62L254.505 197.14H259.965L245.265 236.62H239.805ZM290.172 236.62L304.872 197.14H310.332L295.632 236.62H290.172ZM315.356 237.796V233.05H335.516V237.796H315.356ZM340.54 237.796V233.05H360.7V237.796H340.54ZM365.723 237.796V233.05H385.883V237.796H365.723ZM390.907 236.62L405.607 197.14H411.067L396.367 236.62H390.907ZM441.274 236.62L455.974 197.14H461.434L446.734 236.62H441.274ZM466.458 237.796V233.05H486.618V237.796H466.458ZM491.641 237.796V233.05H511.801V237.796H491.641ZM516.825 237.796V233.05H536.985V237.796H516.825ZM542.008 237.796V233.05H562.168V237.796H542.008ZM567.192 236.62L581.892 197.14H587.352L572.652 236.62H567.192ZM639.593 236.62L654.293 197.14H659.753L645.053 236.62H639.593ZM620.693 236.62L635.393 197.14H640.853L626.153 236.62H620.693ZM693.11 236.62L707.81 197.14H713.27L698.57 236.62H693.11ZM718.293 237.796V233.05H738.453V237.796H718.293ZM743.477 237.796V233.05H763.637V237.796H743.477ZM768.661 237.796V233.05H788.821V237.796H768.661ZM63.52 291.62L78.22 252.14H83.68L68.98 291.62H63.52ZM88.7036 292.796V288.05H108.864V292.796H88.7036ZM113.887 291.62L128.587 252.14H134.047L119.347 291.62H113.887ZM171.688 291.62V252.14H176.98V291.62H171.688ZM189.438 292.796V288.05H209.598V292.796H189.438ZM214.622 291.62L229.322 252.14H234.782L220.082 291.62H214.622ZM239.805 292.796V288.05H259.965V292.796H239.805ZM264.989 292.796V288.05H285.149V292.796H264.989ZM290.172 292.796V288.05H310.332V292.796H290.172ZM315.356 292.796V288.05H335.516V292.796H315.356ZM340.54 292.796V288.05H360.7V292.796H340.54ZM365.723 291.62L380.423 252.14H385.883L371.183 291.62H365.723ZM390.907 292.796V288.05H411.067V292.796H390.907ZM416.09 292.796V288.05H436.25V292.796H416.09ZM441.274 292.796V288.05H461.434V292.796H441.274ZM466.458 292.796V288.05H486.618V292.796H466.458ZM491.641 292.796V288.05H511.801V292.796H491.641ZM516.825 291.62L531.525 252.14H536.985L522.285 291.62H516.825ZM542.008 292.796V288.05H562.168V292.796H542.008ZM567.192 292.796V288.05H587.352V292.796H567.192ZM592.375 292.796V288.05H612.535V292.796H592.375ZM617.559 291.62L632.259 252.14H637.719L623.019 291.62H617.559ZM657.401 291.62L642.743 252.14H648.203L662.861 291.62H657.401ZM667.926 292.796V288.05H688.086V292.796H667.926ZM693.11 292.796V288.05H713.27V292.796H693.11ZM718.293 292.796V288.05H738.453V292.796H718.293ZM743.477 292.796V288.05H763.637V292.796H743.477ZM768.661 291.62L783.361 252.14H788.821L774.121 291.62H768.661Z" fill="#BFE000"/>
<path d="M1130.62 72.796V68.05H1150.78V72.796H1130.62ZM1155.81 72.796V68.05H1175.97V72.796H1155.81ZM1180.99 72.796V68.05H1201.15V72.796H1180.99ZM1206.17 72.796V68.05H1226.33V72.796H1206.17ZM1231.36 72.796V68.05H1251.52V72.796H1231.36ZM1256.54 72.796V68.05H1276.7V72.796H1256.54ZM1281.72 72.796V68.05H1301.88V72.796H1281.72ZM1306.91 72.796V68.05H1327.07V72.796H1306.91ZM1332.09 72.796V68.05H1352.25V72.796H1332.09ZM1357.27 72.796V68.05H1377.43V72.796H1357.27ZM1382.46 72.796V68.05H1402.62V72.796H1382.46ZM1407.64 72.796V68.05H1427.8V72.796H1407.64ZM1432.82 72.796V68.05H1452.98V72.796H1432.82ZM1458.01 72.796V68.05H1478.17V72.796H1458.01ZM1483.19 72.796V68.05H1503.35V72.796H1483.19ZM1508.38 72.796V68.05H1528.54V72.796H1508.38ZM1533.56 72.796V68.05H1553.72V72.796H1533.56ZM1558.74 72.796V68.05H1578.9V72.796H1558.74ZM1583.93 72.796V68.05H1604.09V72.796H1583.93ZM1609.11 72.796V68.05H1629.27V72.796H1609.11ZM1634.29 72.796V68.05H1654.45V72.796H1634.29ZM1659.48 72.796V68.05H1679.64V72.796H1659.48ZM1684.66 72.796V68.05H1704.82V72.796H1684.66ZM1709.84 72.796V68.05H1730V72.796H1709.84ZM1735.03 72.796V68.05H1755.19V72.796H1735.03ZM1760.21 72.796V68.05H1780.37V72.796H1760.21ZM1055.05 127.796V123.05H1100.41V127.796H1055.05ZM1112.87 126.62V87.14H1118.16V126.62H1112.87ZM1130.62 127.796V123.05H1150.78V127.796H1130.62ZM1155.81 127.796V123.05H1175.97V127.796H1155.81ZM1180.99 127.796V123.05H1201.15V127.796H1180.99ZM1206.17 127.796V123.05H1226.33V127.796H1206.17ZM1231.36 127.796V123.05H1251.52V127.796H1231.36ZM1256.54 127.796V123.05H1276.7V127.796H1256.54ZM1306.91 127.796V123.05H1327.07V127.796H1306.91ZM1332.09 127.796V123.05H1352.25V127.796H1332.09ZM1357.27 127.796V123.05H1377.43V127.796H1357.27ZM1382.46 127.796V123.05H1402.62V127.796H1382.46ZM1407.64 127.796V123.05H1427.8V127.796H1407.64ZM1432.82 127.796V123.05H1452.98V127.796H1432.82ZM1458.01 127.796V123.05H1478.17V127.796H1458.01ZM1483.19 127.796V123.05H1503.35V127.796H1483.19ZM1508.38 127.796V123.05H1528.54V127.796H1508.38ZM1533.56 127.796V123.05H1553.72V127.796H1533.56ZM1558.74 127.796V123.05H1578.9V127.796H1558.74ZM1583.93 127.796V123.05H1604.09V127.796H1583.93ZM1609.11 127.796V123.05H1629.27V127.796H1609.11ZM1634.29 127.796V123.05H1654.45V127.796H1634.29ZM1659.48 127.796V123.05H1679.64V127.796H1659.48ZM1684.66 127.796V123.05H1704.82V127.796H1684.66ZM1709.84 127.796V123.05H1730V127.796H1709.84ZM1735.03 127.796V123.05H1755.19V127.796H1735.03ZM1760.21 126.62L1774.91 87.14H1780.37L1765.67 126.62H1760.21ZM1786.32 105.41V100.58H1804.63V105.41H1786.32ZM1786.32 115.7V110.87H1804.63V115.7H1786.32ZM1811.5 105.41V100.58H1829.81V105.41H1811.5ZM1811.5 115.7V110.87H1829.81V115.7H1811.5ZM1836.69 105.41V100.58H1855V105.41H1836.69ZM1836.69 115.7V110.87H1855V115.7H1836.69ZM1861.87 105.41V100.58H1880.18V105.41H1861.87ZM1861.87 115.7V110.87H1880.18V115.7H1861.87ZM1886.8 119.648V114.818L1898.98 109.19C1899.54 108.938 1900.09 108.728 1900.62 108.56C1901.18 108.364 1901.61 108.238 1901.92 108.182C1901.61 108.126 1901.18 108.028 1900.62 107.888C1900.06 107.72 1899.51 107.51 1898.98 107.258L1886.8 101.588V96.674L1905.62 105.536V110.786L1886.8 119.648ZM1037.32 181.62V142.14H1042.61V181.62H1037.32ZM1105.44 182.796V178.05H1125.6V182.796H1105.44ZM1130.62 182.796V178.05H1150.78V182.796H1130.62ZM1155.81 182.796V178.05H1175.97V182.796H1155.81ZM1180.99 182.796V178.05H1201.15V182.796H1180.99ZM1206.17 182.796V178.05H1226.33V182.796H1206.17ZM1231.36 182.796V178.05H1251.52V182.796H1231.36ZM1286.64 181.62V142.14H1291.93V181.62H1286.64ZM1266.48 181.62V142.14H1271.77V181.62H1266.48ZM1316.99 160.536C1315.81 160.536 1314.86 160.214 1314.13 159.57C1313.43 158.898 1313.08 158.044 1313.08 157.008C1313.08 155.944 1313.43 155.09 1314.13 154.446C1314.86 153.802 1315.81 153.48 1316.99 153.48C1318.16 153.48 1319.1 153.802 1319.8 154.446C1320.53 155.09 1320.89 155.944 1320.89 157.008C1320.89 158.044 1320.53 158.898 1319.8 159.57C1319.1 160.214 1318.16 160.536 1316.99 160.536ZM1316.99 177.42C1315.81 177.42 1314.86 177.098 1314.13 176.454C1313.43 175.81 1313.08 174.956 1313.08 173.892C1313.08 172.828 1313.43 171.974 1314.13 171.33C1314.86 170.686 1315.81 170.364 1316.99 170.364C1318.16 170.364 1319.1 170.686 1319.8 171.33C1320.53 171.974 1320.89 172.828 1320.89 173.892C1320.89 174.956 1320.53 175.81 1319.8 176.454C1319.1 177.098 1318.16 177.42 1316.99 177.42ZM1342.17 160.536C1340.99 160.536 1340.04 160.214 1339.31 159.57C1338.61 158.898 1338.26 158.044 1338.26 157.008C1338.26 155.944 1338.61 155.09 1339.31 154.446C1340.04 153.802 1340.99 153.48 1342.17 153.48C1343.35 153.48 1344.28 153.802 1344.98 154.446C1345.71 155.09 1346.08 155.944 1346.08 157.008C1346.08 158.044 1345.71 158.898 1344.98 159.57C1344.28 160.214 1343.35 160.536 1342.17 160.536ZM1342.17 177.42C1340.99 177.42 1340.04 177.098 1339.31 176.454C1338.61 175.81 1338.26 174.956 1338.26 173.892C1338.26 172.828 1338.61 171.974 1339.31 171.33C1340.04 170.686 1340.99 170.364 1342.17 170.364C1343.35 170.364 1344.28 170.686 1344.98 171.33C1345.71 171.974 1346.08 172.828 1346.08 173.892C1346.08 174.956 1345.71 175.81 1344.98 176.454C1344.28 177.098 1343.35 177.42 1342.17 177.42ZM1367.35 160.536C1366.18 160.536 1365.23 160.214 1364.5 159.57C1363.8 158.898 1363.45 158.044 1363.45 157.008C1363.45 155.944 1363.8 155.09 1364.5 154.446C1365.23 153.802 1366.18 153.48 1367.35 153.48C1368.53 153.48 1369.47 153.802 1370.17 154.446C1370.9 155.09 1371.26 155.944 1371.26 157.008C1371.26 158.044 1370.9 158.898 1370.17 159.57C1369.47 160.214 1368.53 160.536 1367.35 160.536ZM1367.35 177.42C1366.18 177.42 1365.23 177.098 1364.5 176.454C1363.8 175.81 1363.45 174.956 1363.45 173.892C1363.45 172.828 1363.8 171.974 1364.5 171.33C1365.23 170.686 1366.18 170.364 1367.35 170.364C1368.53 170.364 1369.47 170.686 1370.17 171.33C1370.9 171.974 1371.26 172.828 1371.26 173.892C1371.26 174.956 1370.9 175.81 1370.17 176.454C1369.47 177.098 1368.53 177.42 1367.35 177.42ZM1392.54 160.536C1391.36 160.536 1390.41 160.214 1389.68 159.57C1388.98 158.898 1388.63 158.044 1388.63 157.008C1388.63 155.944 1388.98 155.09 1389.68 154.446C1390.41 153.802 1391.36 153.48 1392.54 153.48C1393.71 153.48 1394.65 153.802 1395.35 154.446C1396.08 155.09 1396.44 155.944 1396.44 157.008C1396.44 158.044 1396.08 158.898 1395.35 159.57C1394.65 160.214 1393.71 160.536 1392.54 160.536ZM1392.54 177.42C1391.36 177.42 1390.41 177.098 1389.68 176.454C1388.98 175.81 1388.63 174.956 1388.63 173.892C1388.63 172.828 1388.98 171.974 1389.68 171.33C1390.41 170.686 1391.36 170.364 1392.54 170.364C1393.71 170.364 1394.65 170.686 1395.35 171.33C1396.08 171.974 1396.44 172.828 1396.44 173.892C1396.44 174.956 1396.08 175.81 1395.35 176.454C1394.65 177.098 1393.71 177.42 1392.54 177.42ZM1417.72 160.536C1416.55 160.536 1415.59 160.214 1414.87 159.57C1414.17 158.898 1413.82 158.044 1413.82 157.008C1413.82 155.944 1414.17 155.09 1414.87 154.446C1415.59 153.802 1416.55 153.48 1417.72 153.48C1418.9 153.48 1419.84 153.802 1420.54 154.446C1421.26 155.09 1421.63 155.944 1421.63 157.008C1421.63 158.044 1421.26 158.898 1420.54 159.57C1419.84 160.214 1418.9 160.536 1417.72 160.536ZM1417.72 177.42C1416.55 177.42 1415.59 177.098 1414.87 176.454C1414.17 175.81 1413.82 174.956 1413.82 173.892C1413.82 172.828 1414.17 171.974 1414.87 171.33C1415.59 170.686 1416.55 170.364 1417.72 170.364C1418.9 170.364 1419.84 170.686 1420.54 171.33C1421.26 171.974 1421.63 172.828 1421.63 173.892C1421.63 174.956 1421.26 175.81 1420.54 176.454C1419.84 177.098 1418.9 177.42 1417.72 177.42ZM1442.9 160.536C1441.73 160.536 1440.78 160.214 1440.05 159.57C1439.35 158.898 1439 158.044 1439 157.008C1439 155.944 1439.35 155.09 1440.05 154.446C1440.78 153.802 1441.73 153.48 1442.9 153.48C1444.08 153.48 1445.02 153.802 1445.72 154.446C1446.45 155.09 1446.81 155.944 1446.81 157.008C1446.81 158.044 1446.45 158.898 1445.72 159.57C1445.02 160.214 1444.08 160.536 1442.9 160.536ZM1442.9 177.42C1441.73 177.42 1440.78 177.098 1440.05 176.454C1439.35 175.81 1439 174.956 1439 173.892C1439 172.828 1439.35 171.974 1440.05 171.33C1440.78 170.686 1441.73 170.364 1442.9 170.364C1444.08 170.364 1445.02 170.686 1445.72 171.33C1446.45 171.974 1446.81 172.828 1446.81 173.892C1446.81 174.956 1446.45 175.81 1445.72 176.454C1445.02 177.098 1444.08 177.42 1442.9 177.42ZM1468.09 160.536C1466.91 160.536 1465.96 160.214 1465.23 159.57C1464.53 158.898 1464.18 158.044 1464.18 157.008C1464.18 155.944 1464.53 155.09 1465.23 154.446C1465.96 153.802 1466.91 153.48 1468.09 153.48C1469.26 153.48 1470.2 153.802 1470.9 154.446C1471.63 155.09 1471.99 155.944 1471.99 157.008C1471.99 158.044 1471.63 158.898 1470.9 159.57C1470.2 160.214 1469.26 160.536 1468.09 160.536ZM1468.09 177.42C1466.91 177.42 1465.96 177.098 1465.23 176.454C1464.53 175.81 1464.18 174.956 1464.18 173.892C1464.18 172.828 1464.53 171.974 1465.23 171.33C1465.96 170.686 1466.91 170.364 1468.09 170.364C1469.26 170.364 1470.2 170.686 1470.9 171.33C1471.63 171.974 1471.99 172.828 1471.99 173.892C1471.99 174.956 1471.63 175.81 1470.9 176.454C1470.2 177.098 1469.26 177.42 1468.09 177.42ZM1493.27 160.536C1492.1 160.536 1491.14 160.214 1490.42 159.57C1489.72 158.898 1489.37 158.044 1489.37 157.008C1489.37 155.944 1489.72 155.09 1490.42 154.446C1491.14 153.802 1492.1 153.48 1493.27 153.48C1494.45 153.48 1495.39 153.802 1496.09 154.446C1496.81 155.09 1497.18 155.944 1497.18 157.008C1497.18 158.044 1496.81 158.898 1496.09 159.57C1495.39 160.214 1494.45 160.536 1493.27 160.536ZM1493.27 177.42C1492.1 177.42 1491.14 177.098 1490.42 176.454C1489.72 175.81 1489.37 174.956 1489.37 173.892C1489.37 172.828 1489.72 171.974 1490.42 171.33C1491.14 170.686 1492.1 170.364 1493.27 170.364C1494.45 170.364 1495.39 170.686 1496.09 171.33C1496.81 171.974 1497.18 172.828 1497.18 173.892C1497.18 174.956 1496.81 175.81 1496.09 176.454C1495.39 177.098 1494.45 177.42 1493.27 177.42ZM1518.46 160.536C1517.28 160.536 1516.33 160.214 1515.6 159.57C1514.9 158.898 1514.55 158.044 1514.55 157.008C1514.55 155.944 1514.9 155.09 1515.6 154.446C1516.33 153.802 1517.28 153.48 1518.46 153.48C1519.63 153.48 1520.57 153.802 1521.27 154.446C1522 155.09 1522.36 155.944 1522.36 157.008C1522.36 158.044 1522 158.898 1521.27 159.57C1520.57 160.214 1519.63 160.536 1518.46 160.536ZM1518.46 177.42C1517.28 177.42 1516.33 177.098 1515.6 176.454C1514.9 175.81 1514.55 174.956 1514.55 173.892C1514.55 172.828 1514.9 171.974 1515.6 171.33C1516.33 170.686 1517.28 170.364 1518.46 170.364C1519.63 170.364 1520.57 170.686 1521.27 171.33C1522 171.974 1522.36 172.828 1522.36 173.892C1522.36 174.956 1522 175.81 1521.27 176.454C1520.57 177.098 1519.63 177.42 1518.46 177.42ZM1543.64 160.536C1542.46 160.536 1541.51 160.214 1540.78 159.57C1540.08 158.898 1539.73 158.044 1539.73 157.008C1539.73 155.944 1540.08 155.09 1540.78 154.446C1541.51 153.802 1542.46 153.48 1543.64 153.48C1544.82 153.48 1545.75 153.802 1546.45 154.446C1547.18 155.09 1547.55 155.944 1547.55 157.008C1547.55 158.044 1547.18 158.898 1546.45 159.57C1545.75 160.214 1544.82 160.536 1543.64 160.536ZM1543.64 177.42C1542.46 177.42 1541.51 177.098 1540.78 176.454C1540.08 175.81 1539.73 174.956 1539.73 173.892C1539.73 172.828 1540.08 171.974 1540.78 171.33C1541.51 170.686 1542.46 170.364 1543.64 170.364C1544.82 170.364 1545.75 170.686 1546.45 171.33C1547.18 171.974 1547.55 172.828 1547.55 173.892C1547.55 174.956 1547.18 175.81 1546.45 176.454C1545.75 177.098 1544.82 177.42 1543.64 177.42ZM1568.82 160.536C1567.65 160.536 1566.69 160.214 1565.97 159.57C1565.27 158.898 1564.92 158.044 1564.92 157.008C1564.92 155.944 1565.27 155.09 1565.97 154.446C1566.69 153.802 1567.65 153.48 1568.82 153.48C1570 153.48 1570.94 153.802 1571.64 154.446C1572.36 155.09 1572.73 155.944 1572.73 157.008C1572.73 158.044 1572.36 158.898 1571.64 159.57C1570.94 160.214 1570 160.536 1568.82 160.536ZM1568.82 177.42C1567.65 177.42 1566.69 177.098 1565.97 176.454C1565.27 175.81 1564.92 174.956 1564.92 173.892C1564.92 172.828 1565.27 171.974 1565.97 171.33C1566.69 170.686 1567.65 170.364 1568.82 170.364C1570 170.364 1570.94 170.686 1571.64 171.33C1572.36 171.974 1572.73 172.828 1572.73 173.892C1572.73 174.956 1572.36 175.81 1571.64 176.454C1570.94 177.098 1570 177.42 1568.82 177.42ZM1594.01 160.536C1592.83 160.536 1591.88 160.214 1591.15 159.57C1590.45 158.898 1590.1 158.044 1590.1 157.008C1590.1 155.944 1590.45 155.09 1591.15 154.446C1591.88 153.802 1592.83 153.48 1594.01 153.48C1595.18 153.48 1596.12 153.802 1596.82 154.446C1597.55 155.09 1597.91 155.944 1597.91 157.008C1597.91 158.044 1597.55 158.898 1596.82 159.57C1596.12 160.214 1595.18 160.536 1594.01 160.536ZM1594.01 177.42C1592.83 177.42 1591.88 177.098 1591.15 176.454C1590.45 175.81 1590.1 174.956 1590.1 173.892C1590.1 172.828 1590.45 171.974 1591.15 171.33C1591.88 170.686 1592.83 170.364 1594.01 170.364C1595.18 170.364 1596.12 170.686 1596.82 171.33C1597.55 171.974 1597.91 172.828 1597.91 173.892C1597.91 174.956 1597.55 175.81 1596.82 176.454C1596.12 177.098 1595.18 177.42 1594.01 177.42ZM1619.19 160.536C1618.01 160.536 1617.06 160.214 1616.33 159.57C1615.63 158.898 1615.28 158.044 1615.28 157.008C1615.28 155.944 1615.63 155.09 1616.33 154.446C1617.06 153.802 1618.01 153.48 1619.19 153.48C1620.37 153.48 1621.3 153.802 1622 154.446C1622.73 155.09 1623.1 155.944 1623.1 157.008C1623.1 158.044 1622.73 158.898 1622 159.57C1621.3 160.214 1620.37 160.536 1619.19 160.536ZM1619.19 177.42C1618.01 177.42 1617.06 177.098 1616.33 176.454C1615.63 175.81 1615.28 174.956 1615.28 173.892C1615.28 172.828 1615.63 171.974 1616.33 171.33C1617.06 170.686 1618.01 170.364 1619.19 170.364C1620.37 170.364 1621.3 170.686 1622 171.33C1622.73 171.974 1623.1 172.828 1623.1 173.892C1623.1 174.956 1622.73 175.81 1622 176.454C1621.3 177.098 1620.37 177.42 1619.19 177.42ZM1644.37 160.536C1643.2 160.536 1642.25 160.214 1641.52 159.57C1640.82 158.898 1640.47 158.044 1640.47 157.008C1640.47 155.944 1640.82 155.09 1641.52 154.446C1642.25 153.802 1643.2 153.48 1644.37 153.48C1645.55 153.48 1646.49 153.802 1647.19 154.446C1647.92 155.09 1648.28 155.944 1648.28 157.008C1648.28 158.044 1647.92 158.898 1647.19 159.57C1646.49 160.214 1645.55 160.536 1644.37 160.536ZM1644.37 177.42C1643.2 177.42 1642.25 177.098 1641.52 176.454C1640.82 175.81 1640.47 174.956 1640.47 173.892C1640.47 172.828 1640.82 171.974 1641.52 171.33C1642.25 170.686 1643.2 170.364 1644.37 170.364C1645.55 170.364 1646.49 170.686 1647.19 171.33C1647.92 171.974 1648.28 172.828 1648.28 173.892C1648.28 174.956 1647.92 175.81 1647.19 176.454C1646.49 177.098 1645.55 177.42 1644.37 177.42ZM1669.56 160.536C1668.38 160.536 1667.43 160.214 1666.7 159.57C1666 158.898 1665.65 158.044 1665.65 157.008C1665.65 155.944 1666 155.09 1666.7 154.446C1667.43 153.802 1668.38 153.48 1669.56 153.48C1670.73 153.48 1671.67 153.802 1672.37 154.446C1673.1 155.09 1673.46 155.944 1673.46 157.008C1673.46 158.044 1673.1 158.898 1672.37 159.57C1671.67 160.214 1670.73 160.536 1669.56 160.536ZM1669.56 177.42C1668.38 177.42 1667.43 177.098 1666.7 176.454C1666 175.81 1665.65 174.956 1665.65 173.892C1665.65 172.828 1666 171.974 1666.7 171.33C1667.43 170.686 1668.38 170.364 1669.56 170.364C1670.73 170.364 1671.67 170.686 1672.37 171.33C1673.1 171.974 1673.46 172.828 1673.46 173.892C1673.46 174.956 1673.1 175.81 1672.37 176.454C1671.67 177.098 1670.73 177.42 1669.56 177.42ZM1694.74 160.536C1693.56 160.536 1692.61 160.214 1691.88 159.57C1691.18 158.898 1690.83 158.044 1690.83 157.008C1690.83 155.944 1691.18 155.09 1691.88 154.446C1692.61 153.802 1693.56 153.48 1694.74 153.48C1695.92 153.48 1696.85 153.802 1697.55 154.446C1698.28 155.09 1698.65 155.944 1698.65 157.008C1698.65 158.044 1698.28 158.898 1697.55 159.57C1696.85 160.214 1695.92 160.536 1694.74 160.536ZM1694.74 177.42C1693.56 177.42 1692.61 177.098 1691.88 176.454C1691.18 175.81 1690.83 174.956 1690.83 173.892C1690.83 172.828 1691.18 171.974 1691.88 171.33C1692.61 170.686 1693.56 170.364 1694.74 170.364C1695.92 170.364 1696.85 170.686 1697.55 171.33C1698.28 171.974 1698.65 172.828 1698.65 173.892C1698.65 174.956 1698.28 175.81 1697.55 176.454C1696.85 177.098 1695.92 177.42 1694.74 177.42ZM1719.92 160.536C1718.75 160.536 1717.8 160.214 1717.07 159.57C1716.37 158.898 1716.02 158.044 1716.02 157.008C1716.02 155.944 1716.37 155.09 1717.07 154.446C1717.8 153.802 1718.75 153.48 1719.92 153.48C1721.1 153.48 1722.04 153.802 1722.74 154.446C1723.47 155.09 1723.83 155.944 1723.83 157.008C1723.83 158.044 1723.47 158.898 1722.74 159.57C1722.04 160.214 1721.1 160.536 1719.92 160.536ZM1719.92 177.42C1718.75 177.42 1717.8 177.098 1717.07 176.454C1716.37 175.81 1716.02 174.956 1716.02 173.892C1716.02 172.828 1716.37 171.974 1717.07 171.33C1717.8 170.686 1718.75 170.364 1719.92 170.364C1721.1 170.364 1722.04 170.686 1722.74 171.33C1723.47 171.974 1723.83 172.828 1723.83 173.892C1723.83 174.956 1723.47 175.81 1722.74 176.454C1722.04 177.098 1721.1 177.42 1719.92 177.42ZM1745.11 160.536C1743.93 160.536 1742.98 160.214 1742.25 159.57C1741.55 158.898 1741.2 158.044 1741.2 157.008C1741.2 155.944 1741.55 155.09 1742.25 154.446C1742.98 153.802 1743.93 153.48 1745.11 153.48C1746.28 153.48 1747.22 153.802 1747.92 154.446C1748.65 155.09 1749.01 155.944 1749.01 157.008C1749.01 158.044 1748.65 158.898 1747.92 159.57C1747.22 160.214 1746.28 160.536 1745.11 160.536ZM1745.11 177.42C1743.93 177.42 1742.98 177.098 1742.25 176.454C1741.55 175.81 1741.2 174.956 1741.2 173.892C1741.2 172.828 1741.55 171.974 1742.25 171.33C1742.98 170.686 1743.93 170.364 1745.11 170.364C1746.28 170.364 1747.22 170.686 1747.92 171.33C1748.65 171.974 1749.01 172.828 1749.01 173.892C1749.01 174.956 1748.65 175.81 1747.92 176.454C1747.22 177.098 1746.28 177.42 1745.11 177.42ZM1767.65 181.62V142.14H1772.94V181.62H1767.65ZM1859.06 165.576V160.704H1877.75V165.576H1859.06ZM1813.91 165.576V160.704H1832.6V165.576H1813.91ZM1836.59 165.576V160.704H1855.07V165.576H1836.59ZM1037.32 236.62V197.14H1042.61V236.62H1037.32ZM1087.69 236.62V197.14H1092.98V236.62H1087.69ZM1105.44 237.796V233.05H1125.6V237.796H1105.44ZM1130.62 237.796V233.05H1150.78V237.796H1130.62ZM1155.81 237.796V233.05H1175.97V237.796H1155.81ZM1180.99 237.796V233.05H1201.15V237.796H1180.99ZM1206.17 237.796V233.05H1226.33V237.796H1206.17ZM1231.36 237.796V233.05H1251.52V237.796H1231.36ZM1286.64 236.62V197.14H1291.93V236.62H1286.64ZM1266.48 236.62V197.14H1271.77V236.62H1266.48ZM1306.91 237.796V233.05H1327.07V237.796H1306.91ZM1332.09 237.796V233.05H1352.25V237.796H1332.09ZM1357.27 237.796V233.05H1377.43V237.796H1357.27ZM1382.46 237.796V233.05H1402.62V237.796H1382.46ZM1407.64 237.796V233.05H1427.8V237.796H1407.64ZM1432.82 237.796V233.05H1452.98V237.796H1432.82ZM1458.01 237.796V233.05H1478.17V237.796H1458.01ZM1483.19 237.796V233.05H1503.35V237.796H1483.19ZM1508.38 237.796V233.05H1528.54V237.796H1508.38ZM1533.56 237.796V233.05H1553.72V237.796H1533.56ZM1558.74 237.796V233.05H1578.9V237.796H1558.74ZM1583.93 237.796V233.05H1604.09V237.796H1583.93ZM1609.11 237.796V233.05H1629.27V237.796H1609.11ZM1634.29 237.796V233.05H1654.45V237.796H1634.29ZM1659.48 237.796V233.05H1679.64V237.796H1659.48ZM1684.66 237.796V233.05H1704.82V237.796H1684.66ZM1709.84 237.796V233.05H1730V237.796H1709.84ZM1735.03 237.796V233.05H1755.19V237.796H1735.03ZM1767.65 236.62V197.14H1772.94V236.62H1767.65ZM1786.32 215.41V210.58H1804.63V215.41H1786.32ZM1786.32 225.7V220.87H1804.63V225.7H1786.32ZM1811.5 215.41V210.58H1829.81V215.41H1811.5ZM1811.5 225.7V220.87H1829.81V225.7H1811.5ZM1836.69 215.41V210.58H1855V215.41H1836.69ZM1836.69 225.7V220.87H1855V225.7H1836.69ZM1861.87 215.41V210.58H1880.18V215.41H1861.87ZM1861.87 225.7V220.87H1880.18V225.7H1861.87ZM1886.8 229.648V224.818L1898.98 219.19C1899.54 218.938 1900.09 218.728 1900.62 218.56C1901.18 218.364 1901.61 218.238 1901.92 218.182C1901.61 218.126 1901.18 218.028 1900.62 217.888C1900.06 217.72 1899.51 217.51 1898.98 217.258L1886.8 211.588V206.674L1905.62 215.536V220.786L1886.8 229.648ZM1037.32 291.62V252.14H1042.61V291.62H1037.32ZM1061.34 292.796V288.05H1087.67V255.5H1092.96V288.05H1119.3V292.796H1061.34ZM1138.06 291.62V252.14H1143.35V291.62H1138.06ZM1162.07 292.796V288.05H1188.41V255.5H1193.7V288.05H1220.03V292.796H1162.07ZM1238.79 291.62V252.14H1244.08V291.62H1238.79ZM1262.81 292.796V288.05H1289.14V255.5H1294.43V288.05H1320.77V292.796H1262.81ZM1339.52 291.62V252.14H1344.82V291.62H1339.52ZM1363.54 292.796V288.05H1389.88V255.5H1395.17V288.05H1421.5V292.796H1363.54ZM1440.26 291.62V252.14H1445.55V291.62H1440.26ZM1464.28 292.796V288.05H1490.61V255.5H1495.9V288.05H1522.24V292.796H1464.28ZM1540.99 291.62V252.14H1546.29V291.62H1540.99ZM1565.01 292.796V288.05H1591.34V255.5H1596.64V288.05H1622.97V292.796H1565.01ZM1641.73 291.62V252.14H1647.02V291.62H1641.73ZM1659.48 292.796V288.05H1679.64V292.796H1659.48ZM1692.09 291.62V252.14H1697.39V291.62H1692.09ZM1709.83 292.796V288.05H1755.19V292.796H1709.83ZM1767.65 291.62V252.14H1772.94V291.62H1767.65ZM1859.06 275.576V270.704H1877.75V275.576H1859.06ZM1813.91 275.576V270.704H1832.6V275.576H1813.91ZM1836.59 275.576V270.704H1855.07V275.576H1836.59Z" fill="#BFE000"/>
</g>
<defs>
<clipPath id="clip0_46_98">
<rect width="2030" height="354" fill="white" transform="matrix(1 0 0 -1 0 354)"/>
</clipPath>
</defs>
</svg>
