<svg width="2030" height="354" viewBox="0 0 2030 354" fill="none" xmlns="http://www.w3.org/2000/svg">
<rect width="2030" height="354" transform="matrix(1 0 0 -1 0 354)" fill="#272727"/>
<path d="M180.254 72.796V68.05H200.414V72.796H180.254ZM205.438 72.796V68.05H225.598V72.796H205.438ZM230.622 72.796V68.05H250.782V72.796H230.622ZM255.805 72.796V68.05H275.965V72.796H255.805ZM331.356 72.796V68.05H351.516V72.796H331.356ZM356.54 72.796V68.05H376.7V72.796H356.54ZM381.723 72.796V68.05H401.883V72.796H381.723ZM406.907 72.796V68.05H427.067V72.796H406.907ZM432.09 72.796V68.05H452.25V72.796H432.09ZM457.274 72.796V68.05H477.434V72.796H457.274ZM482.458 72.796V68.05H502.618V72.796H482.458ZM507.641 72.796V68.05H527.801V72.796H507.641ZM633.559 72.796V68.05H653.719V72.796H633.559ZM658.743 72.796V68.05H678.903V72.796H658.743ZM683.926 72.796V68.05H704.086V72.796H683.926ZM709.11 72.796V68.05H729.27V72.796H709.11ZM734.293 72.796V68.05H754.453V72.796H734.293ZM759.477 72.796V68.05H779.637V72.796H759.477ZM784.661 72.796V68.05H804.821V72.796H784.661ZM809.844 72.796V68.05H830.004V72.796H809.844ZM835.028 72.796V68.05H855.188V72.796H835.028ZM860.211 72.796V68.05H880.371V72.796H860.211ZM885.395 72.796V68.05H905.555V72.796H885.395ZM910.579 72.796V68.05H930.739V72.796H910.579ZM155.071 126.62L169.771 87.14H175.231L160.531 126.62H155.071ZM205.422 127.796V123.05H250.782V127.796H205.422ZM295.647 126.62L280.989 87.14H286.449L301.107 126.62H295.647ZM306.172 126.62L320.872 87.14H326.332L311.632 126.62H306.172ZM356.54 127.796V123.05H376.7V127.796H356.54ZM381.723 127.796V123.05H401.883V127.796H381.723ZM406.907 127.796V123.05H427.067V127.796H406.907ZM432.09 127.796V123.05H452.25V127.796H432.09ZM457.274 126.62L471.974 87.14H477.434L462.734 126.62H457.274ZM507.641 126.62L522.341 87.14H527.801L513.101 126.62H507.641ZM608.375 126.62L623.075 87.14H628.535L613.835 126.62H608.375ZM683.926 127.796V123.05H704.086V127.796H683.926ZM709.11 126.62L723.81 87.14H729.27L714.57 126.62H709.11ZM759.477 127.796V123.05H779.637V127.796H759.477ZM784.661 127.796V123.05H804.821V127.796H784.661ZM809.844 127.796V123.05H830.004V127.796H809.844ZM835.028 127.796V123.05H855.188V127.796H835.028ZM860.211 126.62L874.911 87.14H880.371L865.671 126.62H860.211ZM129.887 181.62L144.587 142.14H150.047L135.347 181.62H129.887ZM180.254 181.62L194.954 142.14H200.414L185.714 181.62H180.254ZM205.438 182.796V178.05H225.598V182.796H205.438ZM230.622 181.62L245.322 142.14H250.782L236.082 181.62H230.622ZM280.989 181.62L295.689 142.14H301.149L286.449 181.62H280.989ZM331.34 182.796V178.05H376.7V182.796H331.34ZM381.723 181.62L396.423 142.14H401.883L387.183 181.62H381.723ZM432.09 181.62L446.79 142.14H452.25L437.55 181.62H432.09ZM482.458 181.62L497.158 142.14H502.618L487.918 181.62H482.458ZM608.375 181.62L623.075 142.14H628.535L613.835 181.62H608.375ZM680.776 181.62L695.476 142.14H700.936L686.236 181.62H680.776ZM661.876 181.62L676.576 142.14H682.036L667.336 181.62H661.876ZM734.293 181.62L748.993 142.14H754.453L739.753 181.62H734.293ZM104.704 236.62L119.404 197.14H124.864L110.164 236.62H104.704ZM155.071 237.796V233.05H175.231V237.796H155.071ZM184.034 238.72L187.394 225.658H194.114L188.654 238.72H184.034ZM230.622 237.796V233.05H250.782V237.796H230.622ZM255.805 236.62L270.505 197.14H275.965L261.265 236.62H255.805ZM306.172 236.62L320.872 197.14H326.332L311.632 236.62H306.172ZM331.356 237.796V233.05H351.516V237.796H331.356ZM356.54 237.796V233.05H376.7V237.796H356.54ZM381.723 237.796V233.05H401.883V237.796H381.723ZM406.907 236.62L421.607 197.14H427.067L412.367 236.62H406.907ZM457.274 236.62L471.974 197.14H477.434L462.734 236.62H457.274ZM482.458 237.796V233.05H502.618V237.796H482.458ZM507.641 237.796V233.05H527.801V237.796H507.641ZM532.825 237.796V233.05H552.985V237.796H532.825ZM558.008 237.796V233.05H578.168V237.796H558.008ZM583.192 236.62L597.892 197.14H603.352L588.652 236.62H583.192ZM655.593 236.62L670.293 197.14H675.753L661.053 236.62H655.593ZM636.693 236.62L651.393 197.14H656.853L642.153 236.62H636.693ZM709.11 236.62L723.81 197.14H729.27L714.57 236.62H709.11ZM734.293 237.796V233.05H754.453V237.796H734.293ZM759.477 237.796V233.05H779.637V237.796H759.477ZM784.661 237.796V233.05H804.821V237.796H784.661ZM79.52 291.62L94.22 252.14H99.68L84.98 291.62H79.52ZM104.704 292.796V288.05H124.864V292.796H104.704ZM129.887 291.62L144.587 252.14H150.047L135.347 291.62H129.887ZM187.688 291.62V252.14H192.98V291.62H187.688ZM205.438 292.796V288.05H225.598V292.796H205.438ZM230.622 291.62L245.322 252.14H250.782L236.082 291.62H230.622ZM255.805 292.796V288.05H275.965V292.796H255.805ZM280.989 292.796V288.05H301.149V292.796H280.989ZM306.172 292.796V288.05H326.332V292.796H306.172ZM331.356 292.796V288.05H351.516V292.796H331.356ZM356.54 292.796V288.05H376.7V292.796H356.54ZM381.723 291.62L396.423 252.14H401.883L387.183 291.62H381.723ZM406.907 292.796V288.05H427.067V292.796H406.907ZM432.09 292.796V288.05H452.25V292.796H432.09ZM457.274 292.796V288.05H477.434V292.796H457.274ZM482.458 292.796V288.05H502.618V292.796H482.458ZM507.641 292.796V288.05H527.801V292.796H507.641ZM532.825 291.62L547.525 252.14H552.985L538.285 291.62H532.825ZM558.008 292.796V288.05H578.168V292.796H558.008ZM583.192 292.796V288.05H603.352V292.796H583.192ZM608.375 292.796V288.05H628.535V292.796H608.375ZM633.559 291.62L648.259 252.14H653.719L639.019 291.62H633.559ZM673.401 291.62L658.743 252.14H664.203L678.861 291.62H673.401ZM683.926 292.796V288.05H704.086V292.796H683.926ZM709.11 292.796V288.05H729.27V292.796H709.11ZM734.293 292.796V288.05H754.453V292.796H734.293ZM759.477 292.796V288.05H779.637V292.796H759.477ZM784.661 291.62L799.361 252.14H804.821L790.121 291.62H784.661Z" fill="#BFE000"/>
<path d="M1086.62 72.796V68.05H1106.78V72.796H1086.62ZM1111.81 72.796V68.05H1131.97V72.796H1111.81ZM1136.99 72.796V68.05H1157.15V72.796H1136.99ZM1162.17 72.796V68.05H1182.33V72.796H1162.17ZM1187.36 72.796V68.05H1207.52V72.796H1187.36ZM1212.54 72.796V68.05H1232.7V72.796H1212.54ZM1237.72 72.796V68.05H1257.88V72.796H1237.72ZM1262.91 72.796V68.05H1283.07V72.796H1262.91ZM1288.09 72.796V68.05H1308.25V72.796H1288.09ZM1313.27 72.796V68.05H1333.43V72.796H1313.27ZM1338.46 72.796V68.05H1358.62V72.796H1338.46ZM1363.64 72.796V68.05H1383.8V72.796H1363.64ZM1388.82 72.796V68.05H1408.98V72.796H1388.82ZM1414.01 72.796V68.05H1434.17V72.796H1414.01ZM1439.19 72.796V68.05H1459.35V72.796H1439.19ZM1464.38 72.796V68.05H1484.54V72.796H1464.38ZM1489.56 72.796V68.05H1509.72V72.796H1489.56ZM1514.74 72.796V68.05H1534.9V72.796H1514.74ZM1539.93 72.796V68.05H1560.09V72.796H1539.93ZM1565.11 72.796V68.05H1585.27V72.796H1565.11ZM1590.29 72.796V68.05H1610.45V72.796H1590.29ZM1615.48 72.796V68.05H1635.64V72.796H1615.48ZM1640.66 72.796V68.05H1660.82V72.796H1640.66ZM1665.84 72.796V68.05H1686V72.796H1665.84ZM1691.03 72.796V68.05H1711.19V72.796H1691.03ZM1716.21 72.796V68.05H1736.37V72.796H1716.21ZM1741.4 72.796V68.05H1761.56V72.796H1741.4ZM1766.58 72.796V68.05H1786.74V72.796H1766.58ZM1791.76 72.796V68.05H1811.92V72.796H1791.76ZM1061.44 126.62L1076.14 87.14H1081.6L1066.9 126.62H1061.44ZM1086.62 127.796V123.05H1106.78V127.796H1086.62ZM1111.81 127.796V123.05H1131.97V127.796H1111.81ZM1136.99 127.796V123.05H1157.15V127.796H1136.99ZM1162.17 127.796V123.05H1182.33V127.796H1162.17ZM1187.36 127.796V123.05H1207.52V127.796H1187.36ZM1212.54 127.796V123.05H1232.7V127.796H1212.54ZM1237.72 127.796V123.05H1257.88V127.796H1237.72ZM1262.91 127.796V123.05H1283.07V127.796H1262.91ZM1313.27 126.62L1327.97 87.14H1333.43L1318.73 126.62H1313.27ZM1338.46 127.796V123.05H1358.62V127.796H1338.46ZM1363.64 126.62L1378.34 87.14H1383.8L1369.1 126.62H1363.64ZM1388.82 127.796V123.05H1408.98V127.796H1388.82ZM1414.01 126.62L1428.71 87.14H1434.17L1419.47 126.62H1414.01ZM1439.19 127.796V123.05H1459.35V127.796H1439.19ZM1464.38 126.62L1479.08 87.14H1484.54L1469.84 126.62H1464.38ZM1489.56 127.796V123.05H1509.72V127.796H1489.56ZM1514.74 126.62L1529.44 87.14H1534.9L1520.2 126.62H1514.74ZM1539.93 127.796V123.05H1560.09V127.796H1539.93ZM1565.11 126.62L1579.81 87.14H1585.27L1570.57 126.62H1565.11ZM1590.29 127.796V123.05H1610.45V127.796H1590.29ZM1615.48 126.62L1630.18 87.14H1635.64L1620.94 126.62H1615.48ZM1640.66 127.796V123.05H1660.82V127.796H1640.66ZM1665.84 126.62L1680.54 87.14H1686L1671.3 126.62H1665.84ZM1691.03 127.796V123.05H1711.19V127.796H1691.03ZM1716.21 126.62L1730.91 87.14H1736.37L1721.67 126.62H1716.21ZM1741.38 127.796V123.05H1786.74V127.796H1741.38ZM1791.76 126.62L1806.46 87.14H1811.92L1797.22 126.62H1791.76ZM1817.87 105.41V100.58H1836.18V105.41H1817.87ZM1817.87 115.7V110.87H1836.18V115.7H1817.87ZM1843.05 105.41V100.58H1861.37V105.41H1843.05ZM1843.05 115.7V110.87H1861.37V115.7H1843.05ZM1868.24 105.41V100.58H1886.55V105.41H1868.24ZM1868.24 115.7V110.87H1886.55V115.7H1868.24ZM1893.17 119.648V114.818L1905.35 109.19C1905.91 108.938 1906.45 108.728 1906.99 108.56C1907.55 108.364 1907.98 108.238 1908.29 108.182C1907.98 108.126 1907.55 108.028 1906.99 107.888C1906.43 107.72 1905.88 107.51 1905.35 107.258L1893.17 101.588V96.674L1911.98 105.536V110.786L1893.17 119.648ZM1061.44 181.62L1076.14 142.14H1081.6L1066.9 181.62H1061.44ZM1086.62 182.796V178.05H1106.78V182.796H1086.62ZM1111.81 181.62L1126.51 142.14H1131.97L1117.27 181.62H1111.81ZM1310.12 181.62L1324.82 142.14H1330.28L1315.58 181.62H1310.12ZM1291.22 181.62L1305.92 142.14H1311.38L1296.68 181.62H1291.22ZM1348.54 160.536C1347.36 160.536 1346.41 160.214 1345.68 159.57C1344.98 158.898 1344.63 158.044 1344.63 157.008C1344.63 155.944 1344.98 155.09 1345.68 154.446C1346.41 153.802 1347.36 153.48 1348.54 153.48C1349.71 153.48 1350.65 153.802 1351.35 154.446C1352.08 155.09 1352.44 155.944 1352.44 157.008C1352.44 158.044 1352.08 158.898 1351.35 159.57C1350.65 160.214 1349.71 160.536 1348.54 160.536ZM1348.54 177.42C1347.36 177.42 1346.41 177.098 1345.68 176.454C1344.98 175.81 1344.63 174.956 1344.63 173.892C1344.63 172.828 1344.98 171.974 1345.68 171.33C1346.41 170.686 1347.36 170.364 1348.54 170.364C1349.71 170.364 1350.65 170.686 1351.35 171.33C1352.08 171.974 1352.44 172.828 1352.44 173.892C1352.44 174.956 1352.08 175.81 1351.35 176.454C1350.65 177.098 1349.71 177.42 1348.54 177.42ZM1373.72 160.536C1372.55 160.536 1371.59 160.214 1370.87 159.57C1370.17 158.898 1369.82 158.044 1369.82 157.008C1369.82 155.944 1370.17 155.09 1370.87 154.446C1371.59 153.802 1372.55 153.48 1373.72 153.48C1374.9 153.48 1375.84 153.802 1376.54 154.446C1377.26 155.09 1377.63 155.944 1377.63 157.008C1377.63 158.044 1377.26 158.898 1376.54 159.57C1375.84 160.214 1374.9 160.536 1373.72 160.536ZM1373.72 177.42C1372.55 177.42 1371.59 177.098 1370.87 176.454C1370.17 175.81 1369.82 174.956 1369.82 173.892C1369.82 172.828 1370.17 171.974 1370.87 171.33C1371.59 170.686 1372.55 170.364 1373.72 170.364C1374.9 170.364 1375.84 170.686 1376.54 171.33C1377.26 171.974 1377.63 172.828 1377.63 173.892C1377.63 174.956 1377.26 175.81 1376.54 176.454C1375.84 177.098 1374.9 177.42 1373.72 177.42ZM1398.9 160.536C1397.73 160.536 1396.78 160.214 1396.05 159.57C1395.35 158.898 1395 158.044 1395 157.008C1395 155.944 1395.35 155.09 1396.05 154.446C1396.78 153.802 1397.73 153.48 1398.9 153.48C1400.08 153.48 1401.02 153.802 1401.72 154.446C1402.45 155.09 1402.81 155.944 1402.81 157.008C1402.81 158.044 1402.45 158.898 1401.72 159.57C1401.02 160.214 1400.08 160.536 1398.9 160.536ZM1398.9 177.42C1397.73 177.42 1396.78 177.098 1396.05 176.454C1395.35 175.81 1395 174.956 1395 173.892C1395 172.828 1395.35 171.974 1396.05 171.33C1396.78 170.686 1397.73 170.364 1398.9 170.364C1400.08 170.364 1401.02 170.686 1401.72 171.33C1402.45 171.974 1402.81 172.828 1402.81 173.892C1402.81 174.956 1402.45 175.81 1401.72 176.454C1401.02 177.098 1400.08 177.42 1398.9 177.42ZM1424.09 160.536C1422.91 160.536 1421.96 160.214 1421.23 159.57C1420.53 158.898 1420.18 158.044 1420.18 157.008C1420.18 155.944 1420.53 155.09 1421.23 154.446C1421.96 153.802 1422.91 153.48 1424.09 153.48C1425.26 153.48 1426.2 153.802 1426.9 154.446C1427.63 155.09 1427.99 155.944 1427.99 157.008C1427.99 158.044 1427.63 158.898 1426.9 159.57C1426.2 160.214 1425.26 160.536 1424.09 160.536ZM1424.09 177.42C1422.91 177.42 1421.96 177.098 1421.23 176.454C1420.53 175.81 1420.18 174.956 1420.18 173.892C1420.18 172.828 1420.53 171.974 1421.23 171.33C1421.96 170.686 1422.91 170.364 1424.09 170.364C1425.26 170.364 1426.2 170.686 1426.9 171.33C1427.63 171.974 1427.99 172.828 1427.99 173.892C1427.99 174.956 1427.63 175.81 1426.9 176.454C1426.2 177.098 1425.26 177.42 1424.09 177.42ZM1449.27 160.536C1448.1 160.536 1447.14 160.214 1446.42 159.57C1445.72 158.898 1445.37 158.044 1445.37 157.008C1445.37 155.944 1445.72 155.09 1446.42 154.446C1447.14 153.802 1448.1 153.48 1449.27 153.48C1450.45 153.48 1451.39 153.802 1452.09 154.446C1452.81 155.09 1453.18 155.944 1453.18 157.008C1453.18 158.044 1452.81 158.898 1452.09 159.57C1451.39 160.214 1450.45 160.536 1449.27 160.536ZM1449.27 177.42C1448.1 177.42 1447.14 177.098 1446.42 176.454C1445.72 175.81 1445.37 174.956 1445.37 173.892C1445.37 172.828 1445.72 171.974 1446.42 171.33C1447.14 170.686 1448.1 170.364 1449.27 170.364C1450.45 170.364 1451.39 170.686 1452.09 171.33C1452.81 171.974 1453.18 172.828 1453.18 173.892C1453.18 174.956 1452.81 175.81 1452.09 176.454C1451.39 177.098 1450.45 177.42 1449.27 177.42ZM1474.46 160.536C1473.28 160.536 1472.33 160.214 1471.6 159.57C1470.9 158.898 1470.55 158.044 1470.55 157.008C1470.55 155.944 1470.9 155.09 1471.6 154.446C1472.33 153.802 1473.28 153.48 1474.46 153.48C1475.63 153.48 1476.57 153.802 1477.27 154.446C1478 155.09 1478.36 155.944 1478.36 157.008C1478.36 158.044 1478 158.898 1477.27 159.57C1476.57 160.214 1475.63 160.536 1474.46 160.536ZM1474.46 177.42C1473.28 177.42 1472.33 177.098 1471.6 176.454C1470.9 175.81 1470.55 174.956 1470.55 173.892C1470.55 172.828 1470.9 171.974 1471.6 171.33C1472.33 170.686 1473.28 170.364 1474.46 170.364C1475.63 170.364 1476.57 170.686 1477.27 171.33C1478 171.974 1478.36 172.828 1478.36 173.892C1478.36 174.956 1478 175.81 1477.27 176.454C1476.57 177.098 1475.63 177.42 1474.46 177.42ZM1499.64 160.536C1498.46 160.536 1497.51 160.214 1496.78 159.57C1496.08 158.898 1495.73 158.044 1495.73 157.008C1495.73 155.944 1496.08 155.09 1496.78 154.446C1497.51 153.802 1498.46 153.48 1499.64 153.48C1500.82 153.48 1501.75 153.802 1502.45 154.446C1503.18 155.09 1503.55 155.944 1503.55 157.008C1503.55 158.044 1503.18 158.898 1502.45 159.57C1501.75 160.214 1500.82 160.536 1499.64 160.536ZM1499.64 177.42C1498.46 177.42 1497.51 177.098 1496.78 176.454C1496.08 175.81 1495.73 174.956 1495.73 173.892C1495.73 172.828 1496.08 171.974 1496.78 171.33C1497.51 170.686 1498.46 170.364 1499.64 170.364C1500.82 170.364 1501.75 170.686 1502.45 171.33C1503.18 171.974 1503.55 172.828 1503.55 173.892C1503.55 174.956 1503.18 175.81 1502.45 176.454C1501.75 177.098 1500.82 177.42 1499.64 177.42ZM1524.82 160.536C1523.65 160.536 1522.69 160.214 1521.97 159.57C1521.27 158.898 1520.92 158.044 1520.92 157.008C1520.92 155.944 1521.27 155.09 1521.97 154.446C1522.69 153.802 1523.65 153.48 1524.82 153.48C1526 153.48 1526.94 153.802 1527.64 154.446C1528.36 155.09 1528.73 155.944 1528.73 157.008C1528.73 158.044 1528.36 158.898 1527.64 159.57C1526.94 160.214 1526 160.536 1524.82 160.536ZM1524.82 177.42C1523.65 177.42 1522.69 177.098 1521.97 176.454C1521.27 175.81 1520.92 174.956 1520.92 173.892C1520.92 172.828 1521.27 171.974 1521.97 171.33C1522.69 170.686 1523.65 170.364 1524.82 170.364C1526 170.364 1526.94 170.686 1527.64 171.33C1528.36 171.974 1528.73 172.828 1528.73 173.892C1528.73 174.956 1528.36 175.81 1527.64 176.454C1526.94 177.098 1526 177.42 1524.82 177.42ZM1550.01 160.536C1548.83 160.536 1547.88 160.214 1547.15 159.57C1546.45 158.898 1546.1 158.044 1546.1 157.008C1546.1 155.944 1546.45 155.09 1547.15 154.446C1547.88 153.802 1548.83 153.48 1550.01 153.48C1551.18 153.48 1552.12 153.802 1552.82 154.446C1553.55 155.09 1553.91 155.944 1553.91 157.008C1553.91 158.044 1553.55 158.898 1552.82 159.57C1552.12 160.214 1551.18 160.536 1550.01 160.536ZM1550.01 177.42C1548.83 177.42 1547.88 177.098 1547.15 176.454C1546.45 175.81 1546.1 174.956 1546.1 173.892C1546.1 172.828 1546.45 171.974 1547.15 171.33C1547.88 170.686 1548.83 170.364 1550.01 170.364C1551.18 170.364 1552.12 170.686 1552.82 171.33C1553.55 171.974 1553.91 172.828 1553.91 173.892C1553.91 174.956 1553.55 175.81 1552.82 176.454C1552.12 177.098 1551.18 177.42 1550.01 177.42ZM1575.19 160.536C1574.01 160.536 1573.06 160.214 1572.33 159.57C1571.63 158.898 1571.28 158.044 1571.28 157.008C1571.28 155.944 1571.63 155.09 1572.33 154.446C1573.06 153.802 1574.01 153.48 1575.19 153.48C1576.37 153.48 1577.3 153.802 1578 154.446C1578.73 155.09 1579.1 155.944 1579.1 157.008C1579.1 158.044 1578.73 158.898 1578 159.57C1577.3 160.214 1576.37 160.536 1575.19 160.536ZM1575.19 177.42C1574.01 177.42 1573.06 177.098 1572.33 176.454C1571.63 175.81 1571.28 174.956 1571.28 173.892C1571.28 172.828 1571.63 171.974 1572.33 171.33C1573.06 170.686 1574.01 170.364 1575.19 170.364C1576.37 170.364 1577.3 170.686 1578 171.33C1578.73 171.974 1579.1 172.828 1579.1 173.892C1579.1 174.956 1578.73 175.81 1578 176.454C1577.3 177.098 1576.37 177.42 1575.19 177.42ZM1600.37 160.536C1599.2 160.536 1598.25 160.214 1597.52 159.57C1596.82 158.898 1596.47 158.044 1596.47 157.008C1596.47 155.944 1596.82 155.09 1597.52 154.446C1598.25 153.802 1599.2 153.48 1600.37 153.48C1601.55 153.48 1602.49 153.802 1603.19 154.446C1603.92 155.09 1604.28 155.944 1604.28 157.008C1604.28 158.044 1603.92 158.898 1603.19 159.57C1602.49 160.214 1601.55 160.536 1600.37 160.536ZM1600.37 177.42C1599.2 177.42 1598.25 177.098 1597.52 176.454C1596.82 175.81 1596.47 174.956 1596.47 173.892C1596.47 172.828 1596.82 171.974 1597.52 171.33C1598.25 170.686 1599.2 170.364 1600.37 170.364C1601.55 170.364 1602.49 170.686 1603.19 171.33C1603.92 171.974 1604.28 172.828 1604.28 173.892C1604.28 174.956 1603.92 175.81 1603.19 176.454C1602.49 177.098 1601.55 177.42 1600.37 177.42ZM1625.56 160.536C1624.38 160.536 1623.43 160.214 1622.7 159.57C1622 158.898 1621.65 158.044 1621.65 157.008C1621.65 155.944 1622 155.09 1622.7 154.446C1623.43 153.802 1624.38 153.48 1625.56 153.48C1626.73 153.48 1627.67 153.802 1628.37 154.446C1629.1 155.09 1629.46 155.944 1629.46 157.008C1629.46 158.044 1629.1 158.898 1628.37 159.57C1627.67 160.214 1626.73 160.536 1625.56 160.536ZM1625.56 177.42C1624.38 177.42 1623.43 177.098 1622.7 176.454C1622 175.81 1621.65 174.956 1621.65 173.892C1621.65 172.828 1622 171.974 1622.7 171.33C1623.43 170.686 1624.38 170.364 1625.56 170.364C1626.73 170.364 1627.67 170.686 1628.37 171.33C1629.1 171.974 1629.46 172.828 1629.46 173.892C1629.46 174.956 1629.1 175.81 1628.37 176.454C1627.67 177.098 1626.73 177.42 1625.56 177.42ZM1650.74 160.536C1649.56 160.536 1648.61 160.214 1647.88 159.57C1647.18 158.898 1646.83 158.044 1646.83 157.008C1646.83 155.944 1647.18 155.09 1647.88 154.446C1648.61 153.802 1649.56 153.48 1650.74 153.48C1651.92 153.48 1652.85 153.802 1653.55 154.446C1654.28 155.09 1654.65 155.944 1654.65 157.008C1654.65 158.044 1654.28 158.898 1653.55 159.57C1652.85 160.214 1651.92 160.536 1650.74 160.536ZM1650.74 177.42C1649.56 177.42 1648.61 177.098 1647.88 176.454C1647.18 175.81 1646.83 174.956 1646.83 173.892C1646.83 172.828 1647.18 171.974 1647.88 171.33C1648.61 170.686 1649.56 170.364 1650.74 170.364C1651.92 170.364 1652.85 170.686 1653.55 171.33C1654.28 171.974 1654.65 172.828 1654.65 173.892C1654.65 174.956 1654.28 175.81 1653.55 176.454C1652.85 177.098 1651.92 177.42 1650.74 177.42ZM1675.92 160.536C1674.75 160.536 1673.8 160.214 1673.07 159.57C1672.37 158.898 1672.02 158.044 1672.02 157.008C1672.02 155.944 1672.37 155.09 1673.07 154.446C1673.8 153.802 1674.75 153.48 1675.92 153.48C1677.1 153.48 1678.04 153.802 1678.74 154.446C1679.47 155.09 1679.83 155.944 1679.83 157.008C1679.83 158.044 1679.47 158.898 1678.74 159.57C1678.04 160.214 1677.1 160.536 1675.92 160.536ZM1675.92 177.42C1674.75 177.42 1673.8 177.098 1673.07 176.454C1672.37 175.81 1672.02 174.956 1672.02 173.892C1672.02 172.828 1672.37 171.974 1673.07 171.33C1673.8 170.686 1674.75 170.364 1675.92 170.364C1677.1 170.364 1678.04 170.686 1678.74 171.33C1679.47 171.974 1679.83 172.828 1679.83 173.892C1679.83 174.956 1679.47 175.81 1678.74 176.454C1678.04 177.098 1677.1 177.42 1675.92 177.42ZM1701.11 160.536C1699.93 160.536 1698.98 160.214 1698.25 159.57C1697.55 158.898 1697.2 158.044 1697.2 157.008C1697.2 155.944 1697.55 155.09 1698.25 154.446C1698.98 153.802 1699.93 153.48 1701.11 153.48C1702.28 153.48 1703.22 153.802 1703.92 154.446C1704.65 155.09 1705.01 155.944 1705.01 157.008C1705.01 158.044 1704.65 158.898 1703.92 159.57C1703.22 160.214 1702.28 160.536 1701.11 160.536ZM1701.11 177.42C1699.93 177.42 1698.98 177.098 1698.25 176.454C1697.55 175.81 1697.2 174.956 1697.2 173.892C1697.2 172.828 1697.55 171.974 1698.25 171.33C1698.98 170.686 1699.93 170.364 1701.11 170.364C1702.28 170.364 1703.22 170.686 1703.92 171.33C1704.65 171.974 1705.01 172.828 1705.01 173.892C1705.01 174.956 1704.65 175.81 1703.92 176.454C1703.22 177.098 1702.28 177.42 1701.11 177.42ZM1726.29 160.536C1725.12 160.536 1724.16 160.214 1723.44 159.57C1722.74 158.898 1722.39 158.044 1722.39 157.008C1722.39 155.944 1722.74 155.09 1723.44 154.446C1724.16 153.802 1725.12 153.48 1726.29 153.48C1727.47 153.48 1728.41 153.802 1729.11 154.446C1729.83 155.09 1730.2 155.944 1730.2 157.008C1730.2 158.044 1729.83 158.898 1729.11 159.57C1728.41 160.214 1727.47 160.536 1726.29 160.536ZM1726.29 177.42C1725.12 177.42 1724.16 177.098 1723.44 176.454C1722.74 175.81 1722.39 174.956 1722.39 173.892C1722.39 172.828 1722.74 171.974 1723.44 171.33C1724.16 170.686 1725.12 170.364 1726.29 170.364C1727.47 170.364 1728.41 170.686 1729.11 171.33C1729.83 171.974 1730.2 172.828 1730.2 173.892C1730.2 174.956 1729.83 175.81 1729.11 176.454C1728.41 177.098 1727.47 177.42 1726.29 177.42ZM1751.48 160.536C1750.3 160.536 1749.35 160.214 1748.62 159.57C1747.92 158.898 1747.57 158.044 1747.57 157.008C1747.57 155.944 1747.92 155.09 1748.62 154.446C1749.35 153.802 1750.3 153.48 1751.48 153.48C1752.65 153.48 1753.59 153.802 1754.29 154.446C1755.02 155.09 1755.38 155.944 1755.38 157.008C1755.38 158.044 1755.02 158.898 1754.29 159.57C1753.59 160.214 1752.65 160.536 1751.48 160.536ZM1751.48 177.42C1750.3 177.42 1749.35 177.098 1748.62 176.454C1747.92 175.81 1747.57 174.956 1747.57 173.892C1747.57 172.828 1747.92 171.974 1748.62 171.33C1749.35 170.686 1750.3 170.364 1751.48 170.364C1752.65 170.364 1753.59 170.686 1754.29 171.33C1755.02 171.974 1755.38 172.828 1755.38 173.892C1755.38 174.956 1755.02 175.81 1754.29 176.454C1753.59 177.098 1752.65 177.42 1751.48 177.42ZM1766.58 181.62L1781.28 142.14H1786.74L1772.04 181.62H1766.58ZM1792.69 160.41V155.58H1811V160.41H1792.69ZM1792.69 170.7V165.87H1811V170.7H1792.69ZM1817.87 160.41V155.58H1836.18V160.41H1817.87ZM1817.87 170.7V165.87H1836.18V170.7H1817.87ZM1843.05 160.41V155.58H1861.37V160.41H1843.05ZM1843.05 170.7V165.87H1861.37V170.7H1843.05ZM1867.98 174.648V169.818L1880.16 164.19C1880.72 163.938 1881.27 163.728 1881.8 163.56C1882.36 163.364 1882.8 163.238 1883.1 163.182C1882.8 163.126 1882.36 163.028 1881.8 162.888C1881.24 162.72 1880.7 162.51 1880.16 162.258L1867.98 156.588V151.674L1886.8 160.536V165.786L1867.98 174.648ZM1036.25 236.62L1050.95 197.14H1056.41L1041.71 236.62H1036.25ZM1061.44 237.796V233.05H1081.6V237.796H1061.44ZM1086.62 236.62L1101.32 197.14H1106.78L1092.08 236.62H1086.62ZM1111.81 237.796V233.05H1131.97V237.796H1111.81ZM1136.99 237.796V233.05H1157.15V237.796H1136.99ZM1162.17 237.796V233.05H1182.33V237.796H1162.17ZM1187.36 237.796V233.05H1207.52V237.796H1187.36ZM1212.54 237.796V233.05H1232.7V237.796H1212.54ZM1237.72 237.796V233.05H1257.88V237.796H1237.72ZM1284.94 236.62L1299.64 197.14H1305.1L1290.4 236.62H1284.94ZM1266.04 236.62L1280.74 197.14H1286.2L1271.5 236.62H1266.04ZM1313.27 237.796V233.05H1333.43V237.796H1313.27ZM1338.46 237.796V233.05H1358.62V237.796H1338.46ZM1363.64 237.796V233.05H1383.8V237.796H1363.64ZM1388.82 237.796V233.05H1408.98V237.796H1388.82ZM1414.01 237.796V233.05H1434.17V237.796H1414.01ZM1439.19 237.796V233.05H1459.35V237.796H1439.19ZM1464.38 237.796V233.05H1484.54V237.796H1464.38ZM1489.56 237.796V233.05H1509.72V237.796H1489.56ZM1514.74 237.796V233.05H1534.9V237.796H1514.74ZM1539.93 237.796V233.05H1560.09V237.796H1539.93ZM1565.11 237.796V233.05H1585.27V237.796H1565.11ZM1590.29 237.796V233.05H1610.45V237.796H1590.29ZM1615.48 237.796V233.05H1635.64V237.796H1615.48ZM1640.66 237.796V233.05H1660.82V237.796H1640.66ZM1665.84 237.796V233.05H1686V237.796H1665.84ZM1691.03 237.796V233.05H1711.19V237.796H1691.03ZM1716.21 237.796V233.05H1736.37V237.796H1716.21ZM1741.4 236.62L1756.1 197.14H1761.56L1746.86 236.62H1741.4ZM1767.5 215.41V210.58H1785.81V215.41H1767.5ZM1767.5 225.7V220.87H1785.81V225.7H1767.5ZM1792.69 215.41V210.58H1811V215.41H1792.69ZM1792.69 225.7V220.87H1811V225.7H1792.69ZM1817.87 215.41V210.58H1836.18V215.41H1817.87ZM1817.87 225.7V220.87H1836.18V225.7H1817.87ZM1842.8 229.648V224.818L1854.98 219.19C1855.54 218.938 1856.09 218.728 1856.62 218.56C1857.18 218.364 1857.61 218.238 1857.92 218.182C1857.61 218.126 1857.18 218.028 1856.62 217.888C1856.06 217.72 1855.51 217.51 1854.98 217.258L1842.8 211.588V206.674L1861.62 215.536V220.786L1842.8 229.648ZM1061.44 291.62L1076.14 252.14H1081.6L1066.9 291.62H1061.44ZM1086.62 292.796V288.05H1106.78V292.796H1086.62ZM1111.81 292.796V288.05H1131.97V292.796H1111.81ZM1136.99 292.796V288.05H1157.15V292.796H1136.99ZM1162.17 292.796V288.05H1182.33V292.796H1162.17ZM1187.36 292.796V288.05H1207.52V292.796H1187.36ZM1212.54 292.796V288.05H1232.7V292.796H1212.54ZM1259.76 291.62L1274.46 252.14H1279.92L1265.22 291.62H1259.76ZM1240.86 291.62L1255.56 252.14H1261.02L1246.32 291.62H1240.86ZM1288.09 292.796V288.05H1308.25V292.796H1288.09ZM1313.27 292.796V288.05H1333.43V292.796H1313.27ZM1338.46 292.796V288.05H1358.62V292.796H1338.46ZM1363.64 292.796V288.05H1383.8V292.796H1363.64ZM1388.82 292.796V288.05H1408.98V292.796H1388.82ZM1414.01 291.62L1428.71 252.14H1434.17L1419.47 291.62H1414.01ZM1471.81 291.62V252.14H1477.1V291.62H1471.81ZM1489.56 292.796V288.05H1509.72V292.796H1489.56ZM1514.74 292.796V288.05H1534.9V292.796H1514.74ZM1539.93 292.796V288.05H1560.09V292.796H1539.93ZM1565.11 292.796V288.05H1585.27V292.796H1565.11ZM1590.29 291.62L1604.99 252.14H1610.45L1595.75 291.62H1590.29ZM1648.09 291.62V252.14H1653.39V291.62H1648.09ZM1665.83 292.796V288.05H1711.19V292.796H1665.83ZM1716.21 291.62L1730.91 252.14H1736.37L1721.67 291.62H1716.21ZM1742.32 270.41V265.58H1760.63V270.41H1742.32ZM1742.32 280.7V275.87H1760.63V280.7H1742.32ZM1767.5 270.41V265.58H1785.81V270.41H1767.5ZM1767.5 280.7V275.87H1785.81V280.7H1767.5ZM1792.69 270.41V265.58H1811V270.41H1792.69ZM1792.69 280.7V275.87H1811V280.7H1792.69ZM1817.62 284.648V279.818L1829.8 274.19C1830.36 273.938 1830.9 273.728 1831.44 273.56C1832 273.364 1832.43 273.238 1832.74 273.182C1832.43 273.126 1832 273.028 1831.44 272.888C1830.88 272.72 1830.33 272.51 1829.8 272.258L1817.62 266.588V261.674L1836.43 270.536V275.786L1817.62 284.648Z" fill="#BFE000"/>
</svg>
